<?xml version="1.0" encoding="UTF-8" standalone="no"?>
<!-- Created with Inkscape (http://www.inkscape.org/) -->
<svg
   xmlns:dc="http://purl.org/dc/elements/1.1/"
   xmlns:cc="http://creativecommons.org/ns#"
   xmlns:rdf="http://www.w3.org/1999/02/22-rdf-syntax-ns#"
   xmlns:svg="http://www.w3.org/2000/svg"
   xmlns="http://www.w3.org/2000/svg"
   xmlns:sodipodi="http://sodipodi.sourceforge.net/DTD/sodipodi-0.dtd"
   xmlns:inkscape="http://www.inkscape.org/namespaces/inkscape"
   width="612pt"
   height="792pt"
   id="svg2383"
   sodipodi:version="0.32"
   inkscape:version="0.46"
   sodipodi:docname="pentagonalstar1c.svg"
   inkscape:output_extension="org.inkscape.output.svg.inkscape">
  <defs
     id="defs2385">
    <inkscape:perspective
       sodipodi:type="inkscape:persp3d"
       inkscape:vp_x="0 : 495 : 1"
       inkscape:vp_y="0 : 1000 : 0"
       inkscape:vp_z="765 : 495 : 1"
       inkscape:persp3d-origin="382.5 : 330 : 1"
       id="perspective2392" />
  </defs>
  <sodipodi:namedview
     inkscape:document-units="in"
     pagecolor="#ffffff"
     bordercolor="#666666"
     borderopacity="1.0"
     inkscape:pageopacity="0.0"
     inkscape:pageshadow="2"
     inkscape:zoom="1.0182338"
     inkscape:cx="145.34699"
     inkscape:cy="537.84583"
     inkscape:current-layer="layer1"
     id="namedview2387"
     showgrid="true"
     inkscape:window-width="1600"
     inkscape:window-height="1128"
     inkscape:window-x="0"
     inkscape:window-y="25">
    <inkscape:grid
       type="xygrid"
       id="grid2394" />
  </sodipodi:namedview>
  <metadata
     id="metadata2389">
    <rdf:RDF>
      <cc:Work
         rdf:about="">
        <dc:format>image/svg+xml</dc:format>
        <dc:type
           rdf:resource="http://purl.org/dc/dcmitype/StillImage" />
      </cc:Work>
    </rdf:RDF>
  </metadata>
  <g
     inkscape:label="Layer 1"
     inkscape:groupmode="layer"
     id="layer1">
    <path
       sodipodi:type="star"
       style="opacity:1;fill:#ffffff;fill-opacity:1;stroke:#000000;stroke-width:9;stroke-miterlimit:4;stroke-dasharray:none;stroke-opacity:1"
       id="path3382"
       sodipodi:sides="5"
       sodipodi:cx="390"
       sodipodi:cy="369.31738"
       sodipodi:r1="260.15632"
       sodipodi:r2="210.47089"
       sodipodi:arg1="-0.31472063"
       sodipodi:arg2="0.3135979"
       inkscape:flatsided="true"
       inkscape:rounded="0"
       inkscape:randomized="0"
       d="M 637.37819,288.78578 L 543.03417,579.70238 L 237.20213,579.87407 L 142.53155,289.06357 L 389.85396,109.16111 L 637.37819,288.78578 z" />
    <path
       sodipodi:type="star"
       style="opacity:1;fill:#ffffff;fill-opacity:1;stroke:none;stroke-width:0;stroke-miterlimit:4;stroke-dasharray:none;stroke-opacity:1;stroke-linejoin:round"
       id="path3876"
       sodipodi:sides="5"
       sodipodi:cx="-380"
       sodipodi:cy="78.617928"
       sodipodi:r1="97.581711"
       sodipodi:r2="78.945267"
       sodipodi:arg1="0.93591979"
       sodipodi:arg2="1.5642383"
       inkscape:flatsided="true"
       inkscape:rounded="0"
       inkscape:randomized="0"
       d="M -322.12642,157.18535 L -436.83814,157.93764 L -473.00148,49.072785 L -380.63994,-18.961685 L -287.39403,47.855553 L -322.12642,157.18535 z"
       transform="translate(771.0966,56.270401)" />
    <path
       sodipodi:type="star"
       style="opacity:1;fill:#ffffff;fill-opacity:1;stroke:none;stroke-width:0;stroke-miterlimit:4;stroke-dasharray:none;stroke-opacity:1;stroke-linecap:round"
       id="path3892"
       sodipodi:sides="5"
       sodipodi:cx="-380"
       sodipodi:cy="78.617928"
       sodipodi:r1="97.581711"
       sodipodi:r2="78.945267"
       sodipodi:arg1="0.93591979"
       sodipodi:arg2="1.5642383"
       inkscape:flatsided="true"
       inkscape:rounded="0"
       inkscape:randomized="0"
       d="M -322.12642,157.18535 L -436.83814,157.93764 L -473.00148,49.072785 L -380.63994,-18.961685 L -287.39403,47.855553 L -322.12642,157.18535 z"
       transform="translate(536.3505,224.20826)" />
    <path
       sodipodi:type="star"
       style="opacity:1;fill:#ffffff;fill-opacity:1;stroke:none;stroke-width:0;stroke-miterlimit:4;stroke-dasharray:none;stroke-opacity:1;stroke-linejoin:round"
       id="path3894"
       sodipodi:sides="5"
       sodipodi:cx="-380"
       sodipodi:cy="78.617928"
       sodipodi:r1="97.581711"
       sodipodi:r2="78.945267"
       sodipodi:arg1="0.93591979"
       sodipodi:arg2="1.5642383"
       inkscape:flatsided="true"
       inkscape:rounded="0"
       inkscape:randomized="0"
       d="M -322.12642,157.18535 L -436.83814,157.93764 L -473.00148,49.072785 L -380.63994,-18.961685 L -287.39403,47.855553 L -322.12642,157.18535 z"
       transform="translate(999.89828,223.22617)"
       inkscape:transform-center-x="-13.749299"
       inkscape:transform-center-y="12.767206" />
    <path
       sodipodi:type="star"
       style="opacity:1;fill:#ffffff;fill-opacity:1;stroke:none;stroke-width:0;stroke-miterlimit:4;stroke-dasharray:none;stroke-opacity:1;stroke-linejoin:round"
       id="path3896"
       sodipodi:sides="5"
       sodipodi:cx="-380"
       sodipodi:cy="78.617928"
       sodipodi:r1="97.581711"
       sodipodi:r2="78.945267"
       sodipodi:arg1="0.93591979"
       sodipodi:arg2="1.5642383"
       inkscape:flatsided="true"
       inkscape:rounded="0"
       inkscape:randomized="0"
       d="M -322.12642,157.18535 L -436.83814,157.93764 L -473.00148,49.072785 L -380.63994,-18.961685 L -287.39403,47.855553 L -322.12642,157.18535 z"
       transform="translate(629.64931,492.14445)" />
    <path
       sodipodi:type="star"
       style="opacity:1;fill:#ffffff;fill-opacity:1;stroke:none;stroke-width:0;stroke-miterlimit:4;stroke-dasharray:none;stroke-opacity:1;stroke-linejoin:round"
       id="path3898"
       sodipodi:sides="5"
       sodipodi:cx="-380"
       sodipodi:cy="78.617928"
       sodipodi:r1="97.581711"
       sodipodi:r2="78.945267"
       sodipodi:arg1="0.93591979"
       sodipodi:arg2="1.5642383"
       inkscape:flatsided="true"
       inkscape:rounded="0"
       inkscape:randomized="0"
       d="M -322.12642,157.18535 L -436.83814,157.93764 L -473.00148,49.072785 L -380.63994,-18.961685 L -287.39403,47.855553 L -322.12642,157.18535 z"
       transform="translate(915.43835,492.14445)" />
    <path
       sodipodi:type="star"
       style="opacity:1;fill:#00ff00;fill-opacity:1;stroke:#000000;stroke-width:5.62500000000000000;stroke-linecap:round;stroke-linejoin:round;stroke-miterlimit:4;stroke-dasharray:none;stroke-opacity:1"
       id="path2397"
       sodipodi:sides="5"
       sodipodi:cx="-380"
       sodipodi:cy="78.617928"
       sodipodi:r1="97.581711"
       sodipodi:r2="78.945267"
       sodipodi:arg1="0.93591979"
       sodipodi:arg2="1.5642383"
       inkscape:flatsided="true"
       inkscape:rounded="0"
       inkscape:randomized="0"
       d="M -322.12642,157.18535 L -436.83814,157.93764 L -473.00148,49.072785 L -380.63994,-18.961685 L -287.39403,47.855553 L -322.12642,157.18535 z"
       transform="matrix(0.8,0,0,0.8,924.67407,239.08797)" />
    <path
       sodipodi:type="star"
       style="opacity:1;fill:#00ff00;fill-opacity:1;stroke:#000000;stroke-width:5.62500000000000000;stroke-linecap:round;stroke-linejoin:round;stroke-miterlimit:4;stroke-dasharray:none;stroke-opacity:1"
       id="path2399"
       sodipodi:sides="5"
       sodipodi:cx="-380"
       sodipodi:cy="78.617928"
       sodipodi:r1="97.581711"
       sodipodi:r2="78.945267"
       sodipodi:arg1="0.93591979"
       sodipodi:arg2="1.5642383"
       inkscape:flatsided="true"
       inkscape:rounded="0"
       inkscape:randomized="0"
       d="M -322.12642,157.18535 L -436.83814,157.93764 L -473.00148,49.072785 L -380.63994,-18.961685 L -287.39403,47.855553 L -322.12642,157.18535 z"
       transform="matrix(0.8,0,0,0.8,553.42067,507.19929)" />
    <path
       sodipodi:type="star"
       style="opacity:1;fill:#00ff00;fill-opacity:1;stroke:#000000;stroke-width:5.62500000000000000;stroke-linecap:round;stroke-linejoin:round;stroke-miterlimit:4;stroke-dasharray:none;stroke-opacity:1"
       id="path2401"
       sodipodi:sides="5"
       sodipodi:cx="-380"
       sodipodi:cy="78.617928"
       sodipodi:r1="97.581711"
       sodipodi:r2="78.945267"
       sodipodi:arg1="0.93591979"
       sodipodi:arg2="1.5642383"
       inkscape:flatsided="true"
       inkscape:rounded="0"
       inkscape:randomized="0"
       d="M -322.12642,157.18535 L -436.83814,157.93764 L -473.00148,49.072785 L -380.63994,-18.961685 L -287.39403,47.855553 L -322.12642,157.18535 z"
       transform="matrix(0.8,0,0,0.8,840.22932,510.21508)" />
    <path
       sodipodi:type="star"
       style="opacity:1;fill:#00ff00;fill-opacity:1;stroke:#000000;stroke-width:5.62500000000000000;stroke-linejoin:round;stroke-miterlimit:4;stroke-dasharray:none;stroke-opacity:1"
       id="path2403"
       sodipodi:sides="5"
       sodipodi:cx="-380"
       sodipodi:cy="78.617928"
       sodipodi:r1="97.581711"
       sodipodi:r2="78.945267"
       sodipodi:arg1="0.93591979"
       sodipodi:arg2="1.5642383"
       inkscape:flatsided="true"
       inkscape:rounded="0"
       inkscape:randomized="0"
       d="M -322.12642,157.18535 L -436.83814,157.93764 L -473.00148,49.072785 L -380.63994,-18.961685 L -287.39403,47.855553 L -322.12642,157.18535 z"
       transform="matrix(0.8,0,0,0.8,695.0311,72.132215)" />
    <path
       sodipodi:type="star"
       style="opacity:1;fill:#00ff00;fill-opacity:1;stroke:#000000;stroke-width:5.62500000000000000;stroke-linecap:round;stroke-linejoin:round;stroke-miterlimit:4;stroke-dasharray:none;stroke-opacity:1"
       id="path2405"
       sodipodi:sides="5"
       sodipodi:cx="-380"
       sodipodi:cy="78.617928"
       sodipodi:r1="97.581711"
       sodipodi:r2="78.945267"
       sodipodi:arg1="0.93591979"
       sodipodi:arg2="1.5642383"
       inkscape:flatsided="true"
       inkscape:rounded="0"
       inkscape:randomized="0"
       d="M -322.12642,157.18535 L -436.83814,157.93764 L -473.00148,49.072785 L -380.63994,-18.961685 L -287.39403,47.855553 L -322.12642,157.18535 z"
       transform="matrix(0.8,0,0,0.8,462.27513,240.07007)" />
    <path
       style="fill:none;fill-rule:evenodd;stroke:#000000;stroke-width:4.5;stroke-linecap:round;stroke-linejoin:round;stroke-miterlimit:4;stroke-dasharray:none;stroke-opacity:1"
       d="M 345.88665,199.26823 C 390.5065,58.639575 390.5065,58.639575 390.5065,58.639575 L 390.5065,58.639575 C 437.20976,198.7512 437.20976,198.7512 437.20976,198.7512"
       id="path2407" />
    <path
       style="fill:none;fill-rule:evenodd;stroke:#000000;stroke-width:4.5;stroke-linecap:round;stroke-linejoin:round;stroke-miterlimit:4;stroke-dasharray:none;stroke-opacity:1"
       d="M 175.23342,546.31265 C 323.15008,546.31265 323.15008,546.31265 323.15008,546.31265 L 323.15008,546.31265 L 204.22648,633.1182 L 204.22648,633.1182"
       id="path3179" />
    <path
       style="fill:none;fill-rule:evenodd;stroke:#000000;stroke-width:4.5;stroke-linecap:round;stroke-linejoin:round;stroke-miterlimit:4;stroke-dasharray:none;stroke-opacity:1"
       d="M 620,224.07921 C 666.70139,364.53059 666.70139,364.53059 666.70139,364.53059 L 546.38889,278.24587 L 546.38889,278.24587"
       id="path3181" />
    <path
       style="fill:none;fill-rule:evenodd;stroke:#000000;stroke-width:4.5;stroke-linecap:round;stroke-linejoin:round;stroke-miterlimit:4;stroke-dasharray:none;stroke-opacity:1"
       d="M 157.51738,225.02728 C 112.89933,366.17311 112.89933,366.17311 112.89933,366.17311 L 232.03126,278.32589 L 232.03126,278.32589"
       id="path3183" />
    <path
       style="fill:none;fill-rule:evenodd;stroke:#000000;stroke-width:4.5;stroke-linecap:round;stroke-linejoin:round;stroke-miterlimit:4;stroke-dasharray:none;stroke-opacity:1"
       d="M 610,548.39994 C 461.90972,549.44161 461.90972,549.44161 461.90972,549.44161 L 582.22222,635.55271 L 582.22222,635.55271 L 582.22222,635.55271 L 582.22222,635.55271"
       id="path3185" />
    <path
       style="opacity:1;fill:#00ff00;fill-opacity:1;stroke:none;stroke-width:0;stroke-linecap:round;stroke-linejoin:round;stroke-miterlimit:4;stroke-dasharray:none;stroke-opacity:1"
       d="M 99.895641,319.2564 C 88.103948,283.85574 87.156229,280.48461 88.635948,279.20301 C 93.751865,274.77199 150.946,233.31225 151.36486,233.73113 C 151.6424,234.00855 143.7887,259.77803 133.91239,290.99663 C 124.03607,322.21524 115.23907,350.04208 114.36334,352.83409 L 112.77127,357.91048 L 99.895641,319.2564 z"
       id="path2580" />
    <path
       style="opacity:1;fill:#0000ff;fill-opacity:1;stroke:none;stroke-width:0;stroke-linecap:round;stroke-linejoin:round;stroke-miterlimit:4;stroke-dasharray:none;stroke-opacity:1"
       d="M 118.24123,358.49594 C 118.24123,357.67718 158.65111,229.97194 159.04159,229.55662 C 159.65971,228.89925 227.17898,277.84621 226.70718,278.60963 C 226.4485,279.02828 208.67744,292.30762 187.21596,308.11933 C 165.75448,323.93105 141.45545,341.86078 133.21814,347.96321 C 124.98084,354.06565 118.24123,358.80538 118.24123,358.49596 L 118.24123,358.49594 z"
       id="path2582" />
    <path
       style="opacity:1;fill:#0000ff;fill-opacity:1;stroke:none;stroke-width:0;stroke-linecap:round;stroke-linejoin:round;stroke-miterlimit:4;stroke-dasharray:none;stroke-opacity:1"
       d="M 350.01511,195.41343 C 350.01511,194.93289 382.0443,93.421679 389.02128,71.789663 L 390.605,66.879199 L 411.88764,130.71523 L 433.17018,194.55125 L 411.47997,195.1611 C 381.18732,196.0128 350.01511,196.14077 350.01511,195.41342 L 350.01511,195.41343 z"
       id="path2584" />
    <path
       style="opacity:1;fill:#0000ff;fill-opacity:1;stroke:none;stroke-width:0;stroke-linecap:round;stroke-linejoin:round;stroke-miterlimit:4;stroke-dasharray:none;stroke-opacity:1"
       d="M 607.26585,318.70614 C 577.85925,297.62305 553.23013,279.81322 552.53432,279.1287 C 551.50823,278.11923 557.62696,273.20308 584.92432,253.10449 L 618.57937,228.32486 L 639.93988,292.39794 C 651.68817,327.63809 661.17263,356.59877 661.01638,356.75496 C 660.86022,356.91114 636.67246,339.78917 607.26585,318.70612 L 607.26585,318.70614 z"
       id="path2586" />
    <path
       style="opacity:1;fill:#0000ff;fill-opacity:1;stroke:none;stroke-width:0;stroke-linecap:round;stroke-linejoin:round;stroke-miterlimit:4;stroke-dasharray:none;stroke-opacity:1"
       d="M 525.18922,591.54066 L 470.06269,552.033 L 537.86784,551.7807 C 575.16065,551.64195 605.83249,551.6879 606.02743,551.88283 C 606.51328,552.36858 581.45312,631.09687 580.82134,631.06987 C 580.54341,631.05797 555.50888,613.26983 525.18922,591.54064 L 525.18922,591.54066 z"
       id="path2588" />
    <path
       style="opacity:1;fill:#0000ff;fill-opacity:1;stroke:none;stroke-width:0;stroke-linecap:round;stroke-linejoin:round;stroke-miterlimit:4;stroke-dasharray:none;stroke-opacity:1"
       d="M 191.92568,589.2891 C 184.72164,567.43475 179.04613,549.33524 179.31345,549.06798 C 179.58068,548.80073 210.20351,548.6956 247.36403,548.83438 L 314.92877,549.08672 L 261.13661,588.37043 C 231.55096,609.97647 206.82236,627.96243 206.1842,628.33922 C 205.3723,628.81853 201.08979,617.08997 191.92568,589.2891 z"
       id="path2590" />
  </g>
</svg>
